solid OpenSCAD_Model
  facet normal 0 0 -1
    outer loop
      vertex 57 39.6 0
      vertex 60 39.6 0
      vertex 60 -5.72205e-07 0
    endloop
  endfacet
  facet normal 0 0 -1
    outer loop
      vertex 60 39.6 0
      vertex 57 39.6 0
      vertex 59.9563 40.9342 0
    endloop
  endfacet
  facet normal 0 0 -1
    outer loop
      vertex 56.9627 40.738 0
      vertex 59.9563 40.9342 0
      vertex 57 39.6 0
    endloop
  endfacet
  facet normal -0 0 -1
    outer loop
      vertex 59.9563 40.9342 0
      vertex 56.9627 40.738 0
      vertex 59.8255 42.2627 0
    endloop
  endfacet
  facet normal 0 0 -1
    outer loop
      vertex 56.8511 41.8711 0
      vertex 59.8255 42.2627 0
      vertex 56.9627 40.738 0
    endloop
  endfacet
  facet normal -0 0 -1
    outer loop
      vertex 59.8255 42.2627 0
      vertex 56.8511 41.8711 0
      vertex 59.608 43.5798 0
    endloop
  endfacet
  facet normal 0 0 -1
    outer loop
      vertex 56.6657 42.9946 0
      vertex 59.608 43.5798 0
      vertex 56.8511 41.8711 0
    endloop
  endfacet
  facet normal -0 0 -1
    outer loop
      vertex 59.608 43.5798 0
      vertex 56.6657 42.9946 0
      vertex 59.3049 44.8799 0
    endloop
  endfacet
  facet normal 0 0 -1
    outer loop
      vertex 57 39.6 0
      vertex 60 -5.72205e-07 0
      vertex 57 -5.72205e-07 0
    endloop
  endfacet
  facet normal 0 0 -1
    outer loop
      vertex 56.4071 44.1034 0
      vertex 59.3049 44.8799 0
      vertex 56.6657 42.9946 0
    endloop
  endfacet
  facet normal -0 0 -1
    outer loop
      vertex 59.3049 44.8799 0
      vertex 56.4071 44.1034 0
      vertex 58.9174 46.1574 0
    endloop
  endfacet
  facet normal 0 0 -1
    outer loop
      vertex 56.0766 45.193 0
      vertex 58.9174 46.1574 0
      vertex 56.4071 44.1034 0
    endloop
  endfacet
  facet normal -0 0 -1
    outer loop
      vertex 58.9174 46.1574 0
      vertex 56.0766 45.193 0
      vertex 58.4471 47.4067 0
    endloop
  endfacet
  facet normal 0 0 -1
    outer loop
      vertex 55.6755 46.2587 0
      vertex 58.4471 47.4067 0
      vertex 56.0766 45.193 0
    endloop
  endfacet
  facet normal -0 0 -1
    outer loop
      vertex 58.4471 47.4067 0
      vertex 55.6755 46.2587 0
      vertex 57.8962 48.6227 0
    endloop
  endfacet
  facet normal 0 0 -1
    outer loop
      vertex 55.2056 47.2958 0
      vertex 57.8962 48.6227 0
      vertex 55.6755 46.2587 0
    endloop
  endfacet
  facet normal -0 0 -1
    outer loop
      vertex 57.8962 48.6227 0
      vertex 55.2056 47.2958 0
      vertex 57.2669 49.8 0
    endloop
  endfacet
  facet normal 0 0 -1
    outer loop
      vertex 54.6688 48.3 0
      vertex 57.2669 49.8 0
      vertex 55.2056 47.2958 0
    endloop
  endfacet
  facet normal -0 0 -1
    outer loop
      vertex 57.2669 49.8 0
      vertex 54.6688 48.3 0
      vertex 56.562 50.9336 0
    endloop
  endfacet
  facet normal 0 0 -1
    outer loop
      vertex 54.0676 49.2669 0
      vertex 56.562 50.9336 0
      vertex 54.6688 48.3 0
    endloop
  endfacet
  facet normal -0 0 -1
    outer loop
      vertex 56.562 50.9336 0
      vertex 54.0676 49.2669 0
      vertex 55.7844 52.0187 0
    endloop
  endfacet
  facet normal 0 0 -1
    outer loop
      vertex 53.4043 50.1924 0
      vertex 55.7844 52.0187 0
      vertex 54.0676 49.2669 0
    endloop
  endfacet
  facet normal -0 0 -1
    outer loop
      vertex 55.7844 52.0187 0
      vertex 53.4043 50.1924 0
      vertex 54.9375 53.0507 0
    endloop
  endfacet
  facet normal 0 0 -1
    outer loop
      vertex 52.682 51.0726 0
      vertex 54.9375 53.0507 0
      vertex 53.4043 50.1924 0
    endloop
  endfacet
  facet normal -0 0 -1
    outer loop
      vertex 54.9375 53.0507 0
      vertex 52.682 51.0726 0
      vertex 54.025 54.025 0
    endloop
  endfacet
  facet normal 0 0 -1
    outer loop
      vertex 51.9037 51.9036 0
      vertex 54.025 54.025 0
      vertex 52.682 51.0726 0
    endloop
  endfacet
  facet normal -0 0 -1
    outer loop
      vertex 54.025 54.025 0
      vertex 51.9037 51.9036 0
      vertex 53.0506 54.9375 0
    endloop
  endfacet
  facet normal 0 0 -1
    outer loop
      vertex 51.0726 52.682 0
      vertex 53.0506 54.9375 0
      vertex 51.9037 51.9036 0
    endloop
  endfacet
  facet normal -0 0 -1
    outer loop
      vertex 53.0506 54.9375 0
      vertex 51.0726 52.682 0
      vertex 52.0187 55.7844 0
    endloop
  endfacet
  facet normal 0 0 -1
    outer loop
      vertex 50.1924 53.4043 0
      vertex 52.0187 55.7844 0
      vertex 51.0726 52.682 0
    endloop
  endfacet
  facet normal -0 0 -1
    outer loop
      vertex 52.0187 55.7844 0
      vertex 50.1924 53.4043 0
      vertex 50.9336 56.562 0
    endloop
  endfacet
  facet normal 0 0 -1
    outer loop
      vertex 49.2669 54.0676 0
      vertex 50.9336 56.562 0
      vertex 50.1924 53.4043 0
    endloop
  endfacet
  facet normal -0 0 -1
    outer loop
      vertex 50.9336 56.562 0
      vertex 49.2669 54.0676 0
      vertex 49.8 57.2669 0
    endloop
  endfacet
  facet normal 0 0 -1
    outer loop
      vertex 48.3 54.6688 0
      vertex 49.8 57.2669 0
      vertex 49.2669 54.0676 0
    endloop
  endfacet
  facet normal -0 0 -1
    outer loop
      vertex 49.8 57.2669 0
      vertex 48.3 54.6688 0
      vertex 48.6227 57.8962 0
    endloop
  endfacet
  facet normal 0 0 -1
    outer loop
      vertex 47.2958 55.2056 0
      vertex 48.6227 57.8962 0
      vertex 48.3 54.6688 0
    endloop
  endfacet
  facet normal -0 0 -1
    outer loop
      vertex 48.6227 57.8962 0
      vertex 47.2958 55.2056 0
      vertex 47.4067 58.4471 0
    endloop
  endfacet
  facet normal 0 0 -1
    outer loop
      vertex 46.2587 55.6755 0
      vertex 47.4067 58.4471 0
      vertex 47.2958 55.2056 0
    endloop
  endfacet
  facet normal 0 0 -1
    outer loop
      vertex 46.2587 55.6755 0
      vertex 46.1574 58.9174 0
      vertex 47.4067 58.4471 0
    endloop
  endfacet
  facet normal 0 0 -1
    outer loop
      vertex 45.193 56.0766 0
      vertex 46.1574 58.9174 0
      vertex 46.2587 55.6755 0
    endloop
  endfacet
  facet normal 0 0 -1
    outer loop
      vertex 45.193 56.0766 0
      vertex 44.8799 59.3049 0
      vertex 46.1574 58.9174 0
    endloop
  endfacet
  facet normal 0 0 -1
    outer loop
      vertex 44.1034 56.4071 0
      vertex 44.8799 59.3049 0
      vertex 45.193 56.0766 0
    endloop
  endfacet
  facet normal 0 0 -1
    outer loop
      vertex 44.1034 56.4071 0
      vertex 43.5798 59.608 0
      vertex 44.8799 59.3049 0
    endloop
  endfacet
  facet normal 0 0 -1
    outer loop
      vertex 42.9946 56.6657 0
      vertex 43.5798 59.608 0
      vertex 44.1034 56.4071 0
    endloop
  endfacet
  facet normal 0 0 -1
    outer loop
      vertex 42.9946 56.6657 0
      vertex 42.2627 59.8255 0
      vertex 43.5798 59.608 0
    endloop
  endfacet
  facet normal 0 0 -1
    outer loop
      vertex 41.8712 56.8511 0
      vertex 42.2627 59.8255 0
      vertex 42.9946 56.6657 0
    endloop
  endfacet
  facet normal 0 0 -1
    outer loop
      vertex 41.8712 56.8511 0
      vertex 40.9342 59.9563 0
      vertex 42.2627 59.8255 0
    endloop
  endfacet
  facet normal 0 0 -1
    outer loop
      vertex 40.738 56.9627 0
      vertex 40.9342 59.9563 0
      vertex 41.8712 56.8511 0
    endloop
  endfacet
  facet normal 0 0 -1
    outer loop
      vertex 39.6 57 0
      vertex 40.9342 59.9563 0
      vertex 40.738 56.9627 0
    endloop
  endfacet
  facet normal 0 0 -1
    outer loop
      vertex 39.6 57 0
      vertex 39.6 60 0
      vertex 40.9342 59.9563 0
    endloop
  endfacet
  facet normal 0 0 -1
    outer loop
      vertex -1.90735e-07 57 0
      vertex 39.6 60 0
      vertex 39.6 57 0
    endloop
  endfacet
  facet normal -0 0 -1
    outer loop
      vertex 39.6 60 0
      vertex -1.90735e-07 57 0
      vertex -1.90735e-07 60 0
    endloop
  endfacet
  facet normal 0 0 1
    outer loop
      vertex 59.9563 40.9342 6.4
      vertex 56.9627 40.738 6.4
      vertex 57 39.6 6.4
    endloop
  endfacet
  facet normal 0 0 1
    outer loop
      vertex 57.8962 48.6227 6.4
      vertex 56.8511 41.8711 6.4
      vertex 56.9627 40.738 6.4
    endloop
  endfacet
  facet normal 0 0 1
    outer loop
      vertex 57.8962 48.6227 6.4
      vertex 56.6657 42.9946 6.4
      vertex 56.8511 41.8711 6.4
    endloop
  endfacet
  facet normal 0 0 1
    outer loop
      vertex 54.6688 48.3 6.4
      vertex 57.2669 49.8 6.4
      vertex 56.562 50.9336 6.4
    endloop
  endfacet
  facet normal 0 0 1
    outer loop
      vertex 57.8962 48.6227 6.4
      vertex 56.4071 44.1034 6.4
      vertex 56.6657 42.9946 6.4
    endloop
  endfacet
  facet normal 0 0 1
    outer loop
      vertex 57.8962 48.6227 6.4
      vertex 56.0766 45.193 6.4
      vertex 56.4071 44.1034 6.4
    endloop
  endfacet
  facet normal 0 0 1
    outer loop
      vertex 54.0676 49.2669 6.4
      vertex 56.562 50.9336 6.4
      vertex 55.7844 52.0187 6.4
    endloop
  endfacet
  facet normal 0 0 1
    outer loop
      vertex 57.8962 48.6227 6.4
      vertex 55.6755 46.2587 6.4
      vertex 56.0766 45.193 6.4
    endloop
  endfacet
  facet normal 0 0 1
    outer loop
      vertex 57.8962 48.6227 6.4
      vertex 55.2056 47.2958 6.4
      vertex 55.6755 46.2587 6.4
    endloop
  endfacet
  facet normal 0 0 1
    outer loop
      vertex 53.4043 50.1924 6.4
      vertex 55.7844 52.0187 6.4
      vertex 54.9375 53.0507 6.4
    endloop
  endfacet
  facet normal 0 0 1
    outer loop
      vertex 57.2669 49.8 6.4
      vertex 54.6688 48.3 6.4
      vertex 55.2056 47.2958 6.4
    endloop
  endfacet
  facet normal 0 0 1
    outer loop
      vertex 56.562 50.9336 6.4
      vertex 54.0676 49.2669 6.4
      vertex 54.6688 48.3 6.4
    endloop
  endfacet
  facet normal 0 0 1
    outer loop
      vertex 52.682 51.0726 6.4
      vertex 54.9375 53.0507 6.4
      vertex 54.025 54.025 6.4
    endloop
  endfacet
  facet normal 0 0 1
    outer loop
      vertex 55.7844 52.0187 6.4
      vertex 53.4043 50.1924 6.4
      vertex 54.0676 49.2669 6.4
    endloop
  endfacet
  facet normal 0 0 1
    outer loop
      vertex 51.9037 51.9036 6.4
      vertex 54.025 54.025 6.4
      vertex 53.0506 54.9375 6.4
    endloop
  endfacet
  facet normal 0 0 1
    outer loop
      vertex 54.9375 53.0507 6.4
      vertex 52.682 51.0726 6.4
      vertex 53.4043 50.1924 6.4
    endloop
  endfacet
  facet normal 0 0 1
    outer loop
      vertex 51.0726 52.682 6.4
      vertex 53.0506 54.9375 6.4
      vertex 52.0187 55.7844 6.4
    endloop
  endfacet
  facet normal 0 0 1
    outer loop
      vertex 54.025 54.025 6.4
      vertex 51.9037 51.9036 6.4
      vertex 52.682 51.0726 6.4
    endloop
  endfacet
  facet normal 0 0 1
    outer loop
      vertex 53.0506 54.9375 6.4
      vertex 51.0726 52.682 6.4
      vertex 51.9037 51.9036 6.4
    endloop
  endfacet
  facet normal 0 0 1
    outer loop
      vertex 50.1924 53.4043 6.4
      vertex 52.0187 55.7844 6.4
      vertex 50.9336 56.562 6.4
    endloop
  endfacet
  facet normal 0 0 1
    outer loop
      vertex 52.0187 55.7844 6.4
      vertex 50.1924 53.4043 6.4
      vertex 51.0726 52.682 6.4
    endloop
  endfacet
  facet normal 0 0 1
    outer loop
      vertex 49.2669 54.0676 6.4
      vertex 50.9336 56.562 6.4
      vertex 49.8 57.2669 6.4
    endloop
  endfacet
  facet normal 0 0 1
    outer loop
      vertex 50.9336 56.562 6.4
      vertex 49.2669 54.0676 6.4
      vertex 50.1924 53.4043 6.4
    endloop
  endfacet
  facet normal 0 0 1
    outer loop
      vertex 48.3 54.6688 6.4
      vertex 49.8 57.2669 6.4
      vertex 48.6227 57.8962 6.4
    endloop
  endfacet
  facet normal 0 0 1
    outer loop
      vertex 49.8 57.2669 6.4
      vertex 48.3 54.6688 6.4
      vertex 49.2669 54.0676 6.4
    endloop
  endfacet
  facet normal 0 0 1
    outer loop
      vertex 47.2958 55.2056 6.4
      vertex 48.6227 57.8962 6.4
      vertex 47.4067 58.4471 6.4
    endloop
  endfacet
  facet normal 0 0 1
    outer loop
      vertex 48.6227 57.8962 6.4
      vertex 47.2958 55.2056 6.4
      vertex 48.3 54.6688 6.4
    endloop
  endfacet
  facet normal 0 0 1
    outer loop
      vertex 47.4067 58.4471 6.4
      vertex 46.2587 55.6755 6.4
      vertex 47.2958 55.2056 6.4
    endloop
  endfacet
  facet normal 0 0 1
    outer loop
      vertex 46.1574 58.9174 6.4
      vertex 46.2587 55.6755 6.4
      vertex 47.4067 58.4471 6.4
    endloop
  endfacet
  facet normal 0 0 1
    outer loop
      vertex 46.1574 58.9174 6.4
      vertex 45.193 56.0766 6.4
      vertex 46.2587 55.6755 6.4
    endloop
  endfacet
  facet normal 0 0 1
    outer loop
      vertex 44.8799 59.3049 6.4
      vertex 45.193 56.0766 6.4
      vertex 46.1574 58.9174 6.4
    endloop
  endfacet
  facet normal 0 0 1
    outer loop
      vertex 44.8799 59.3049 6.4
      vertex 44.1034 56.4071 6.4
      vertex 45.193 56.0766 6.4
    endloop
  endfacet
  facet normal 0 0 1
    outer loop
      vertex 43.5798 59.608 6.4
      vertex 44.1034 56.4071 6.4
      vertex 44.8799 59.3049 6.4
    endloop
  endfacet
  facet normal 0 0 1
    outer loop
      vertex 43.5798 59.608 6.4
      vertex 42.9946 56.6657 6.4
      vertex 44.1034 56.4071 6.4
    endloop
  endfacet
  facet normal 0 0 1
    outer loop
      vertex 42.2627 59.8255 6.4
      vertex 42.9946 56.6657 6.4
      vertex 43.5798 59.608 6.4
    endloop
  endfacet
  facet normal 0 0 1
    outer loop
      vertex 42.2627 59.8255 6.4
      vertex 41.8712 56.8511 6.4
      vertex 42.9946 56.6657 6.4
    endloop
  endfacet
  facet normal 0 0 1
    outer loop
      vertex 40.9342 59.9563 6.4
      vertex 41.8712 56.8511 6.4
      vertex 42.2627 59.8255 6.4
    endloop
  endfacet
  facet normal 0 0 1
    outer loop
      vertex 40.9342 59.9563 6.4
      vertex 40.738 56.9627 6.4
      vertex 41.8712 56.8511 6.4
    endloop
  endfacet
  facet normal 0 0 1
    outer loop
      vertex 39.6 60 6.4
      vertex 40.738 56.9627 6.4
      vertex 40.9342 59.9563 6.4
    endloop
  endfacet
  facet normal 0 0 1
    outer loop
      vertex 39.6 60 6.4
      vertex 39.6 57 6.4
      vertex 40.738 56.9627 6.4
    endloop
  endfacet
  facet normal -0 0 1
    outer loop
      vertex -1.90735e-07 60 6.4
      vertex 39.6 57 6.4
      vertex 39.6 60 6.4
    endloop
  endfacet
  facet normal 0 0 1
    outer loop
      vertex 39.6 57 6.4
      vertex -1.90735e-07 60 6.4
      vertex -1.90735e-07 57 6.4
    endloop
  endfacet
  facet normal 0 0 1
    outer loop
      vertex 57 39.6 6.4
      vertex 60 39.6 6.4
      vertex 59.9563 40.9342 6.4
    endloop
  endfacet
  facet normal 0 0 1
    outer loop
      vertex 56.9627 40.738 6.4
      vertex 59.9563 40.9342 6.4
      vertex 59.8255 42.2627 6.4
    endloop
  endfacet
  facet normal 0 0 1
    outer loop
      vertex 56.9627 40.738 6.4
      vertex 59.8255 42.2627 6.4
      vertex 59.608 43.5798 6.4
    endloop
  endfacet
  facet normal 0 0 1
    outer loop
      vertex 56.9627 40.738 6.4
      vertex 59.608 43.5798 6.4
      vertex 59.3049 44.8799 6.4
    endloop
  endfacet
  facet normal 0 0 1
    outer loop
      vertex 56.9627 40.738 6.4
      vertex 59.3049 44.8799 6.4
      vertex 58.9174 46.1574 6.4
    endloop
  endfacet
  facet normal 0 0 1
    outer loop
      vertex 56.9627 40.738 6.4
      vertex 58.9174 46.1574 6.4
      vertex 58.4471 47.4067 6.4
    endloop
  endfacet
  facet normal 0 0 1
    outer loop
      vertex 56.9627 40.738 6.4
      vertex 58.4471 47.4067 6.4
      vertex 57.8962 48.6227 6.4
    endloop
  endfacet
  facet normal 0 0 1
    outer loop
      vertex 55.2056 47.2958 6.4
      vertex 57.8962 48.6227 6.4
      vertex 57.2669 49.8 6.4
    endloop
  endfacet
  facet normal 0 0 1
    outer loop
      vertex 60 39.6 6.4
      vertex 57 39.6 6.4
      vertex 60 -5.72205e-07 6.4
    endloop
  endfacet
  facet normal 0 0 1
    outer loop
      vertex 60 -5.72205e-07 6.4
      vertex 57 39.6 6.4
      vertex 57 -5.72205e-07 6.4
    endloop
  endfacet
  facet normal 1 -0 0
    outer loop
      vertex 60 -5.72205e-07 6.4
      vertex 60 39.6 0
      vertex 60 39.6 6.4
    endloop
  endfacet
  facet normal 1 0 0
    outer loop
      vertex 60 39.6 0
      vertex 60 -5.72205e-07 6.4
      vertex 60 -5.72205e-07 0
    endloop
  endfacet
  facet normal 0.999464 0.0327362 0
    outer loop
      vertex 60 39.6 6.4
      vertex 59.9563 40.9342 0
      vertex 59.9563 40.9342 6.4
    endloop
  endfacet
  facet normal 0.999464 0.0327362 0
    outer loop
      vertex 59.9563 40.9342 0
      vertex 60 39.6 6.4
      vertex 60 39.6 0
    endloop
  endfacet
  facet normal 0.995188 0.0979831 0
    outer loop
      vertex 59.9563 40.9342 6.4
      vertex 59.8255 42.2627 0
      vertex 59.8255 42.2627 6.4
    endloop
  endfacet
  facet normal 0.995188 0.0979831 0
    outer loop
      vertex 59.8255 42.2627 0
      vertex 59.9563 40.9342 6.4
      vertex 59.9563 40.9342 0
    endloop
  endfacet
  facet normal 0.986638 0.162929 0
    outer loop
      vertex 59.8255 42.2627 6.4
      vertex 59.608 43.5798 0
      vertex 59.608 43.5798 6.4
    endloop
  endfacet
  facet normal 0.986638 0.162929 0
    outer loop
      vertex 59.608 43.5798 0
      vertex 59.8255 42.2627 6.4
      vertex 59.8255 42.2627 0
    endloop
  endfacet
  facet normal 0.973884 0.227047 0
    outer loop
      vertex 59.608 43.5798 6.4
      vertex 59.3049 44.8799 0
      vertex 59.3049 44.8799 6.4
    endloop
  endfacet
  facet normal 0.973884 0.227047 0
    outer loop
      vertex 59.3049 44.8799 0
      vertex 59.608 43.5798 6.4
      vertex 59.608 43.5798 0
    endloop
  endfacet
  facet normal 0.956946 0.290267 0
    outer loop
      vertex 59.3049 44.8799 6.4
      vertex 58.9174 46.1574 0
      vertex 58.9174 46.1574 6.4
    endloop
  endfacet
  facet normal 0.956946 0.290267 0
    outer loop
      vertex 58.9174 46.1574 0
      vertex 59.3049 44.8799 6.4
      vertex 59.3049 44.8799 0
    endloop
  endfacet
  facet normal 0.935882 0.352314 0
    outer loop
      vertex 58.9174 46.1574 6.4
      vertex 58.4471 47.4067 0
      vertex 58.4471 47.4067 6.4
    endloop
  endfacet
  facet normal 0.935882 0.352314 0
    outer loop
      vertex 58.4471 47.4067 0
      vertex 58.9174 46.1574 6.4
      vertex 58.9174 46.1574 0
    endloop
  endfacet
  facet normal 0.910881 0.412668 0
    outer loop
      vertex 58.4471 47.4067 6.4
      vertex 57.8962 48.6227 0
      vertex 57.8962 48.6227 6.4
    endloop
  endfacet
  facet normal 0.910881 0.412668 0
    outer loop
      vertex 57.8962 48.6227 0
      vertex 58.4471 47.4067 6.4
      vertex 58.4471 47.4067 0
    endloop
  endfacet
  facet normal 0.881915 0.471408 0
    outer loop
      vertex 57.8962 48.6227 6.4
      vertex 57.2669 49.8 0
      vertex 57.2669 49.8 6.4
    endloop
  endfacet
  facet normal 0.881915 0.471408 0
    outer loop
      vertex 57.2669 49.8 0
      vertex 57.8962 48.6227 6.4
      vertex 57.8962 48.6227 0
    endloop
  endfacet
  facet normal 0.849208 0.528058 0
    outer loop
      vertex 57.2669 49.8 6.4
      vertex 56.562 50.9336 0
      vertex 56.562 50.9336 6.4
    endloop
  endfacet
  facet normal 0.849208 0.528058 0
    outer loop
      vertex 56.562 50.9336 0
      vertex 57.2669 49.8 6.4
      vertex 57.2669 49.8 0
    endloop
  endfacet
  facet normal 0.812837 0.582492 0
    outer loop
      vertex 56.562 50.9336 6.4
      vertex 55.7844 52.0187 0
      vertex 55.7844 52.0187 6.4
    endloop
  endfacet
  facet normal 0.812837 0.582492 0
    outer loop
      vertex 55.7844 52.0187 0
      vertex 56.562 50.9336 6.4
      vertex 56.562 50.9336 0
    endloop
  endfacet
  facet normal 0.773025 0.634375 0
    outer loop
      vertex 55.7844 52.0187 6.4
      vertex 54.9375 53.0507 0
      vertex 54.9375 53.0507 6.4
    endloop
  endfacet
  facet normal 0.773025 0.634375 0
    outer loop
      vertex 54.9375 53.0507 0
      vertex 55.7844 52.0187 6.4
      vertex 55.7844 52.0187 0
    endloop
  endfacet
  facet normal 0.729876 0.68358 0
    outer loop
      vertex 54.9375 53.0507 6.4
      vertex 54.025 54.025 0
      vertex 54.025 54.025 6.4
    endloop
  endfacet
  facet normal 0.729876 0.68358 0
    outer loop
      vertex 54.025 54.025 0
      vertex 54.9375 53.0507 6.4
      vertex 54.9375 53.0507 0
    endloop
  endfacet
  facet normal 0.683542 0.729911 -0
    outer loop
      vertex 54.025 54.025 0
      vertex 53.0506 54.9375 6.4
      vertex 54.025 54.025 6.4
    endloop
  endfacet
  facet normal 0.683542 0.729911 0
    outer loop
      vertex 53.0506 54.9375 6.4
      vertex 54.025 54.025 0
      vertex 53.0506 54.9375 0
    endloop
  endfacet
  facet normal 0.634412 0.772995 -0
    outer loop
      vertex 53.0506 54.9375 0
      vertex 52.0187 55.7844 6.4
      vertex 53.0506 54.9375 6.4
    endloop
  endfacet
  facet normal 0.634412 0.772995 0
    outer loop
      vertex 52.0187 55.7844 6.4
      vertex 53.0506 54.9375 0
      vertex 52.0187 55.7844 0
    endloop
  endfacet
  facet normal 0.582492 0.812837 -0
    outer loop
      vertex 52.0187 55.7844 0
      vertex 50.9336 56.562 6.4
      vertex 52.0187 55.7844 6.4
    endloop
  endfacet
  facet normal 0.582492 0.812837 0
    outer loop
      vertex 50.9336 56.562 6.4
      vertex 52.0187 55.7844 0
      vertex 50.9336 56.562 0
    endloop
  endfacet
  facet normal 0.528058 0.849208 -0
    outer loop
      vertex 50.9336 56.562 0
      vertex 49.8 57.2669 6.4
      vertex 50.9336 56.562 6.4
    endloop
  endfacet
  facet normal 0.528058 0.849208 0
    outer loop
      vertex 49.8 57.2669 6.4
      vertex 50.9336 56.562 0
      vertex 49.8 57.2669 0
    endloop
  endfacet
  facet normal 0.471408 0.881915 -0
    outer loop
      vertex 49.8 57.2669 0
      vertex 48.6227 57.8962 6.4
      vertex 49.8 57.2669 6.4
    endloop
  endfacet
  facet normal 0.471408 0.881915 0
    outer loop
      vertex 48.6227 57.8962 6.4
      vertex 49.8 57.2669 0
      vertex 48.6227 57.8962 0
    endloop
  endfacet
  facet normal 0.412668 0.910881 -0
    outer loop
      vertex 48.6227 57.8962 0
      vertex 47.4067 58.4471 6.4
      vertex 48.6227 57.8962 6.4
    endloop
  endfacet
  facet normal 0.412668 0.910881 0
    outer loop
      vertex 47.4067 58.4471 6.4
      vertex 48.6227 57.8962 0
      vertex 47.4067 58.4471 0
    endloop
  endfacet
  facet normal 0.352314 0.935882 -0
    outer loop
      vertex 47.4067 58.4471 0
      vertex 46.1574 58.9174 6.4
      vertex 47.4067 58.4471 6.4
    endloop
  endfacet
  facet normal 0.352314 0.935882 0
    outer loop
      vertex 46.1574 58.9174 6.4
      vertex 47.4067 58.4471 0
      vertex 46.1574 58.9174 0
    endloop
  endfacet
  facet normal 0.290267 0.956946 -0
    outer loop
      vertex 46.1574 58.9174 0
      vertex 44.8799 59.3049 6.4
      vertex 46.1574 58.9174 6.4
    endloop
  endfacet
  facet normal 0.290267 0.956946 0
    outer loop
      vertex 44.8799 59.3049 6.4
      vertex 46.1574 58.9174 0
      vertex 44.8799 59.3049 0
    endloop
  endfacet
  facet normal 0.227047 0.973884 -0
    outer loop
      vertex 44.8799 59.3049 0
      vertex 43.5798 59.608 6.4
      vertex 44.8799 59.3049 6.4
    endloop
  endfacet
  facet normal 0.227047 0.973884 0
    outer loop
      vertex 43.5798 59.608 6.4
      vertex 44.8799 59.3049 0
      vertex 43.5798 59.608 0
    endloop
  endfacet
  facet normal 0.162929 0.986638 -0
    outer loop
      vertex 43.5798 59.608 0
      vertex 42.2627 59.8255 6.4
      vertex 43.5798 59.608 6.4
    endloop
  endfacet
  facet normal 0.162929 0.986638 0
    outer loop
      vertex 42.2627 59.8255 6.4
      vertex 43.5798 59.608 0
      vertex 42.2627 59.8255 0
    endloop
  endfacet
  facet normal 0.0979831 0.995188 -0
    outer loop
      vertex 42.2627 59.8255 0
      vertex 40.9342 59.9563 6.4
      vertex 42.2627 59.8255 6.4
    endloop
  endfacet
  facet normal 0.0979831 0.995188 0
    outer loop
      vertex 40.9342 59.9563 6.4
      vertex 42.2627 59.8255 0
      vertex 40.9342 59.9563 0
    endloop
  endfacet
  facet normal 0.0327362 0.999464 -0
    outer loop
      vertex 40.9342 59.9563 0
      vertex 39.6 60 6.4
      vertex 40.9342 59.9563 6.4
    endloop
  endfacet
  facet normal 0.0327362 0.999464 0
    outer loop
      vertex 39.6 60 6.4
      vertex 40.9342 59.9563 0
      vertex 39.6 60 0
    endloop
  endfacet
  facet normal 0 1 -0
    outer loop
      vertex 39.6 60 0
      vertex -1.90735e-07 60 6.4
      vertex 39.6 60 6.4
    endloop
  endfacet
  facet normal 0 1 0
    outer loop
      vertex -1.90735e-07 60 6.4
      vertex 39.6 60 0
      vertex -1.90735e-07 60 0
    endloop
  endfacet
  facet normal 0 -1 0
    outer loop
      vertex -1.90735e-07 57 0
      vertex 39.6 57 6.4
      vertex -1.90735e-07 57 6.4
    endloop
  endfacet
  facet normal 0 -1 -0
    outer loop
      vertex 39.6 57 6.4
      vertex -1.90735e-07 57 0
      vertex 39.6 57 0
    endloop
  endfacet
  facet normal -0.0327592 -0.999463 0
    outer loop
      vertex 39.6 57 0
      vertex 40.738 56.9627 6.4
      vertex 39.6 57 6.4
    endloop
  endfacet
  facet normal -0.0327592 -0.999463 -0
    outer loop
      vertex 40.738 56.9627 6.4
      vertex 39.6 57 0
      vertex 40.738 56.9627 0
    endloop
  endfacet
  facet normal -0.098008 -0.995186 0
    outer loop
      vertex 40.738 56.9627 0
      vertex 41.8712 56.8511 6.4
      vertex 40.738 56.9627 6.4
    endloop
  endfacet
  facet normal -0.098008 -0.995186 -0
    outer loop
      vertex 41.8712 56.8511 6.4
      vertex 40.738 56.9627 0
      vertex 41.8712 56.8511 0
    endloop
  endfacet
  facet normal -0.162832 -0.986654 0
    outer loop
      vertex 41.8712 56.8511 0
      vertex 42.9946 56.6657 6.4
      vertex 41.8712 56.8511 6.4
    endloop
  endfacet
  facet normal -0.162832 -0.986654 -0
    outer loop
      vertex 42.9946 56.6657 6.4
      vertex 41.8712 56.8511 0
      vertex 42.9946 56.6657 0
    endloop
  endfacet
  facet normal -0.22713 -0.973865 0
    outer loop
      vertex 42.9946 56.6657 0
      vertex 44.1034 56.4071 6.4
      vertex 42.9946 56.6657 6.4
    endloop
  endfacet
  facet normal -0.22713 -0.973865 -0
    outer loop
      vertex 44.1034 56.4071 6.4
      vertex 42.9946 56.6657 0
      vertex 44.1034 56.4071 0
    endloop
  endfacet
  facet normal -0.290263 -0.956947 0
    outer loop
      vertex 44.1034 56.4071 0
      vertex 45.193 56.0766 6.4
      vertex 44.1034 56.4071 6.4
    endloop
  endfacet
  facet normal -0.290263 -0.956947 -0
    outer loop
      vertex 45.193 56.0766 6.4
      vertex 44.1034 56.4071 0
      vertex 45.193 56.0766 0
    endloop
  endfacet
  facet normal -0.352249 -0.935906 0
    outer loop
      vertex 45.193 56.0766 0
      vertex 46.2587 55.6755 6.4
      vertex 45.193 56.0766 6.4
    endloop
  endfacet
  facet normal -0.352249 -0.935906 -0
    outer loop
      vertex 46.2587 55.6755 6.4
      vertex 45.193 56.0766 0
      vertex 46.2587 55.6755 0
    endloop
  endfacet
  facet normal -0.412704 -0.910865 0
    outer loop
      vertex 46.2587 55.6755 0
      vertex 47.2958 55.2056 6.4
      vertex 46.2587 55.6755 6.4
    endloop
  endfacet
  facet normal -0.412704 -0.910865 -0
    outer loop
      vertex 47.2958 55.2056 6.4
      vertex 46.2587 55.6755 0
      vertex 47.2958 55.2056 0
    endloop
  endfacet
  facet normal -0.471427 -0.881905 0
    outer loop
      vertex 47.2958 55.2056 0
      vertex 48.3 54.6688 6.4
      vertex 47.2958 55.2056 6.4
    endloop
  endfacet
  facet normal -0.471427 -0.881905 -0
    outer loop
      vertex 48.3 54.6688 6.4
      vertex 47.2958 55.2056 0
      vertex 48.3 54.6688 0
    endloop
  endfacet
  facet normal -0.528032 -0.849225 0
    outer loop
      vertex 48.3 54.6688 0
      vertex 49.2669 54.0676 6.4
      vertex 48.3 54.6688 6.4
    endloop
  endfacet
  facet normal -0.528032 -0.849225 -0
    outer loop
      vertex 49.2669 54.0676 6.4
      vertex 48.3 54.6688 0
      vertex 49.2669 54.0676 0
    endloop
  endfacet
  facet normal -0.582533 -0.812807 0
    outer loop
      vertex 49.2669 54.0676 0
      vertex 50.1924 53.4043 6.4
      vertex 49.2669 54.0676 6.4
    endloop
  endfacet
  facet normal -0.582533 -0.812807 -0
    outer loop
      vertex 50.1924 53.4043 6.4
      vertex 49.2669 54.0676 0
      vertex 50.1924 53.4043 0
    endloop
  endfacet
  facet normal -0.634361 -0.773037 0
    outer loop
      vertex 50.1924 53.4043 0
      vertex 51.0726 52.682 6.4
      vertex 50.1924 53.4043 6.4
    endloop
  endfacet
  facet normal -0.634361 -0.773037 -0
    outer loop
      vertex 51.0726 52.682 6.4
      vertex 50.1924 53.4043 0
      vertex 51.0726 52.682 0
    endloop
  endfacet
  facet normal -0.683588 -0.729868 0
    outer loop
      vertex 51.0726 52.682 0
      vertex 51.9037 51.9036 6.4
      vertex 51.0726 52.682 6.4
    endloop
  endfacet
  facet normal -0.683588 -0.729868 -0
    outer loop
      vertex 51.9037 51.9036 6.4
      vertex 51.0726 52.682 0
      vertex 51.9037 51.9036 0
    endloop
  endfacet
  facet normal -0.729871 -0.683585 0
    outer loop
      vertex 52.682 51.0726 0
      vertex 51.9037 51.9036 6.4
      vertex 51.9037 51.9036 0
    endloop
  endfacet
  facet normal -0.729871 -0.683585 0
    outer loop
      vertex 51.9037 51.9036 6.4
      vertex 52.682 51.0726 0
      vertex 52.682 51.0726 6.4
    endloop
  endfacet
  facet normal -0.773037 -0.634361 0
    outer loop
      vertex 53.4043 50.1924 0
      vertex 52.682 51.0726 6.4
      vertex 52.682 51.0726 0
    endloop
  endfacet
  facet normal -0.773037 -0.634361 0
    outer loop
      vertex 52.682 51.0726 6.4
      vertex 53.4043 50.1924 0
      vertex 53.4043 50.1924 6.4
    endloop
  endfacet
  facet normal -0.812807 -0.582533 0
    outer loop
      vertex 54.0676 49.2669 0
      vertex 53.4043 50.1924 6.4
      vertex 53.4043 50.1924 0
    endloop
  endfacet
  facet normal -0.812807 -0.582533 0
    outer loop
      vertex 53.4043 50.1924 6.4
      vertex 54.0676 49.2669 0
      vertex 54.0676 49.2669 6.4
    endloop
  endfacet
  facet normal -0.849225 -0.528032 0
    outer loop
      vertex 54.6688 48.3 0
      vertex 54.0676 49.2669 6.4
      vertex 54.0676 49.2669 0
    endloop
  endfacet
  facet normal -0.849225 -0.528032 0
    outer loop
      vertex 54.0676 49.2669 6.4
      vertex 54.6688 48.3 0
      vertex 54.6688 48.3 6.4
    endloop
  endfacet
  facet normal -0.881905 -0.471427 0
    outer loop
      vertex 55.2056 47.2958 0
      vertex 54.6688 48.3 6.4
      vertex 54.6688 48.3 0
    endloop
  endfacet
  facet normal -0.881905 -0.471427 0
    outer loop
      vertex 54.6688 48.3 6.4
      vertex 55.2056 47.2958 0
      vertex 55.2056 47.2958 6.4
    endloop
  endfacet
  facet normal -0.910865 -0.412704 0
    outer loop
      vertex 55.6755 46.2587 0
      vertex 55.2056 47.2958 6.4
      vertex 55.2056 47.2958 0
    endloop
  endfacet
  facet normal -0.910865 -0.412704 0
    outer loop
      vertex 55.2056 47.2958 6.4
      vertex 55.6755 46.2587 0
      vertex 55.6755 46.2587 6.4
    endloop
  endfacet
  facet normal -0.935906 -0.352249 0
    outer loop
      vertex 56.0766 45.193 0
      vertex 55.6755 46.2587 6.4
      vertex 55.6755 46.2587 0
    endloop
  endfacet
  facet normal -0.935906 -0.352249 0
    outer loop
      vertex 55.6755 46.2587 6.4
      vertex 56.0766 45.193 0
      vertex 56.0766 45.193 6.4
    endloop
  endfacet
  facet normal -0.956947 -0.290263 0
    outer loop
      vertex 56.4071 44.1034 0
      vertex 56.0766 45.193 6.4
      vertex 56.0766 45.193 0
    endloop
  endfacet
  facet normal -0.956947 -0.290263 0
    outer loop
      vertex 56.0766 45.193 6.4
      vertex 56.4071 44.1034 0
      vertex 56.4071 44.1034 6.4
    endloop
  endfacet
  facet normal -0.973865 -0.22713 0
    outer loop
      vertex 56.6657 42.9946 0
      vertex 56.4071 44.1034 6.4
      vertex 56.4071 44.1034 0
    endloop
  endfacet
  facet normal -0.973865 -0.22713 0
    outer loop
      vertex 56.4071 44.1034 6.4
      vertex 56.6657 42.9946 0
      vertex 56.6657 42.9946 6.4
    endloop
  endfacet
  facet normal -0.986656 -0.162818 0
    outer loop
      vertex 56.8511 41.8711 0
      vertex 56.6657 42.9946 6.4
      vertex 56.6657 42.9946 0
    endloop
  endfacet
  facet normal -0.986656 -0.162818 0
    outer loop
      vertex 56.6657 42.9946 6.4
      vertex 56.8511 41.8711 0
      vertex 56.8511 41.8711 6.4
    endloop
  endfacet
  facet normal -0.995185 -0.0980166 0
    outer loop
      vertex 56.9627 40.738 0
      vertex 56.8511 41.8711 6.4
      vertex 56.8511 41.8711 0
    endloop
  endfacet
  facet normal -0.995185 -0.0980166 0
    outer loop
      vertex 56.8511 41.8711 6.4
      vertex 56.9627 40.738 0
      vertex 56.9627 40.738 6.4
    endloop
  endfacet
  facet normal -0.999463 -0.0327592 0
    outer loop
      vertex 57 39.6 0
      vertex 56.9627 40.738 6.4
      vertex 56.9627 40.738 0
    endloop
  endfacet
  facet normal -0.999463 -0.0327592 0
    outer loop
      vertex 56.9627 40.738 6.4
      vertex 57 39.6 0
      vertex 57 39.6 6.4
    endloop
  endfacet
  facet normal -1 0 0
    outer loop
      vertex 57 -5.72205e-07 0
      vertex 57 39.6 6.4
      vertex 57 39.6 0
    endloop
  endfacet
  facet normal -1 -0 0
    outer loop
      vertex 57 39.6 6.4
      vertex 57 -5.72205e-07 0
      vertex 57 -5.72205e-07 6.4
    endloop
  endfacet
  facet normal -1 0 0
    outer loop
      vertex -1.90735e-07 57 0
      vertex -1.90735e-07 60 6.4
      vertex -1.90735e-07 60 0
    endloop
  endfacet
  facet normal -1 -0 0
    outer loop
      vertex -1.90735e-07 60 6.4
      vertex -1.90735e-07 57 0
      vertex -1.90735e-07 57 6.4
    endloop
  endfacet
  facet normal 0 -1 0
    outer loop
      vertex 57 -5.72205e-07 0
      vertex 60 -5.72205e-07 6.4
      vertex 57 -5.72205e-07 6.4
    endloop
  endfacet
  facet normal 0 -1 -0
    outer loop
      vertex 60 -5.72205e-07 6.4
      vertex 57 -5.72205e-07 0
      vertex 60 -5.72205e-07 0
    endloop
  endfacet
endsolid OpenSCAD_Model
